# xmcd CD database file
#
# Track frame offsets:
#	150
#	14808
#	30289
#	47928
#	67404
#	82159
#	103679
#	119290
#	135085
#	154415
#	172338
#	189149
#	206445
#
# Disc length: 2993 seconds
#
# Revision: 2
# Processed by: cddbd v1.5.2PL0 Copyright (c) Steve Scherf et al.
# Submitted via: CDex 1.70beta2
#
DISCID=b80baf0d
DTITLE=謝巧丹 - 夜半輕私語
DYEAR=2006
DGENRE=Jazz
TTITLE0=夜半輕私語
TTITLE1=分分鐘需要你
TTITLE2=冷雨
TTITLE3=酒紅色的心
TTITLE4=親情
TTITLE5=雨夜的浪漫
TTITLE6=過客
TTITLE7=漣漪
TTITLE8=來來回回
TTITLE9=半夢半醒
TTITLE10=今生今世
TTITLE11=追
TTITLE12=編織
EXTD=YEAR: 2006
EXTT0=
EXTT1=
EXTT2=
EXTT3=
EXTT4=
EXTT5=
EXTT6=
EXTT7=
EXTT8=
EXTT9=
EXTT10=
EXTT11=
EXTT12=
PLAYORDER=
